<?xml version="1.0" encoding="UTF-8" standalone="no"?>
<!-- Created with Inkscape (http://www.inkscape.org/) -->

<svg
   xmlns:dc="http://purl.org/dc/elements/1.1/"
   xmlns:cc="http://creativecommons.org/ns#"
   xmlns:rdf="http://www.w3.org/1999/02/22-rdf-syntax-ns#"
   xmlns:svg="http://www.w3.org/2000/svg"
   xmlns="http://www.w3.org/2000/svg"
   xmlns:xlink="http://www.w3.org/1999/xlink"
   xmlns:sodipodi="http://sodipodi.sourceforge.net/DTD/sodipodi-0.dtd"
   xmlns:inkscape="http://www.inkscape.org/namespaces/inkscape"
   version="1.1"
   id="svg2"
   width="67.613014"
   height="43.207447"
   viewBox="0 0 67.613014 43.207447"
   sodipodi:docname="at.svg"
   inkscape:version="0.92.3 (2405546, 2018-03-11)">
  <metadata
     id="metadata8">
    <rdf:RDF>
      <cc:Work
         rdf:about="">
        <dc:format>image/svg+xml</dc:format>
        <dc:type
           rdf:resource="http://purl.org/dc/dcmitype/StillImage" />
        <dc:title></dc:title>
      </cc:Work>
    </rdf:RDF>
  </metadata>
  <defs
     id="defs6" />
  <sodipodi:namedview
     pagecolor="#ffffff"
     bordercolor="#666666"
     borderopacity="1"
     objecttolerance="10"
     gridtolerance="10"
     guidetolerance="10"
     inkscape:pageopacity="0"
     inkscape:pageshadow="2"
     inkscape:window-width="1238"
     inkscape:window-height="814"
     id="namedview4"
     showgrid="false"
     inkscape:zoom="8.870192"
     inkscape:cx="34.603252"
     inkscape:cy="20.672629"
     inkscape:window-x="0"
     inkscape:window-y="0"
     inkscape:window-maximized="0"
     inkscape:current-layer="layer2"
     fit-margin-top="1"
     fit-margin-left="1"
     fit-margin-right="1"
     fit-margin-bottom="1" />
  <g
     inkscape:groupmode="layer"
     id="layer1"
     inkscape:label="bitmap"
     style="display:none"
     transform="translate(-3.3967481,-12.019115)">
    <image
       width="76"
       height="69.333336"
       preserveAspectRatio="none"
       xlink:href="file:///data/Documents/projects/fonts/CEDPI/dev/sources/irq%20bitig/at/02%20-%20p08a.png"
       id="image10"
       x="0"
       y="0"
       sodipodi:absref="/data/Documents/projects/fonts/CEDPI/dev/sources/irq bitig/at/02 - p08a.png" />
  </g>
  <g
     inkscape:groupmode="layer"
     id="layer2"
     inkscape:label="vector"
     style="display:inline"
     transform="translate(-3.3967481,-12.019115)">
    <g
       id="g4807">
      <path
         sodipodi:nodetypes="cscsscc"
         inkscape:connector-curvature="0"
         id="path4754"
         d="m 29.649866,13.866667 c 0,0 1.106414,3.644736 -1e-6,5.52412 -4.737629,8.047453 -25.2531169,14.54309 -25.2531169,14.54309 0,0 12.9706359,0.750677 19.7289979,-2.254743 7.051586,-3.135815 15.118658,-6.510205 20.405421,-12.062874 1.114248,-1.17029 1.57832,-3.607587 1.57832,-3.607587 C 43.291059,14.092142 33.37019,11.724662 29.649866,13.866667 Z"
         style="fill:#000000;fill-opacity:1;stroke:none;stroke-width:1px;stroke-linecap:butt;stroke-linejoin:miter;stroke-opacity:1" />
      <path
         sodipodi:nodetypes="czcscczc"
         inkscape:connector-curvature="0"
         id="path4756"
         d="m 70.009759,28.747969 c 0,0 -4.267318,-0.191802 -7.778863,0.450948 -3.511545,0.64275 -3.494851,3.043903 -5.975067,1.57832 0,0 -5.212289,-2.794096 -7.553388,-3.269376 -4.61289,-0.93649 -14.204879,-2.254743 -14.204879,-2.254743 l 2.818429,-1.240109 c 0,0 13.641868,0.260606 19.165312,1.127372 5.523444,0.866766 13.528456,3.607588 13.528456,3.607588 z"
         style="fill:#000000;fill-opacity:1;stroke:none;stroke-width:1px;stroke-linecap:butt;stroke-linejoin:miter;stroke-opacity:1" />
      <path
         sodipodi:nodetypes="czzcscszcczscccc"
         inkscape:connector-curvature="0"
         id="path4758"
         d="m 38.781573,53.099189 c 0,0 -5.145042,0.167172 -8.004336,0.338212 -2.859293,0.17104 -5.821413,0.36526 -8.906234,-0.676423 -3.08482,-1.041684 -6.973259,-4.809809 -3.720325,-10.935502 3.041785,-5.120843 11.080023,-6.485995 17.023307,-6.876966 7.394404,-0.486431 16.326205,0.489018 21.758266,2.705692 3.679535,1.835647 5.079202,5.09067 5.185909,7.666124 0.07899,1.906404 -1.269975,4.702603 -4.622223,6.087806 -3.352248,1.385204 -15.557724,2.818428 -15.557724,2.818428 l -1.014634,-1.465582 c 0,0 2.531023,-2.918286 3.382113,-3.833063 0.85109,-0.914777 2.125529,-3.403784 1.465583,-5.524119 -1.053737,-3.385542 -4.7324,-4.374976 -9.244444,-3.15664 -3.399655,1.014634 -5.577955,6.303678 -3.833063,9.244445 0.859129,1.39886 5.185908,2.818428 5.185908,2.818428 z"
         style="fill:#000000;fill-opacity:1;stroke:none;stroke-width:1px;stroke-linecap:butt;stroke-linejoin:miter;stroke-opacity:1" />
    </g>
  </g>
</svg>
