<?xml version="1.0" encoding="UTF-8" standalone="no"?>
<!-- Created with Inkscape (http://www.inkscape.org/) -->

<svg
   xmlns:dc="http://purl.org/dc/elements/1.1/"
   xmlns:cc="http://creativecommons.org/ns#"
   xmlns:rdf="http://www.w3.org/1999/02/22-rdf-syntax-ns#"
   xmlns:svg="http://www.w3.org/2000/svg"
   xmlns="http://www.w3.org/2000/svg"
   xmlns:sodipodi="http://sodipodi.sourceforge.net/DTD/sodipodi-0.dtd"
   xmlns:inkscape="http://www.inkscape.org/namespaces/inkscape"
   width="19.402779mm"
   height="19.755554mm"
   viewBox="0 0 19.402779 19.755554"
   version="1.1"
   id="svg12988"
   inkscape:version="0.92.2 (5c3e80d, 2017-08-06)"
   sodipodi:docname="et.svg">
  <defs
     id="defs12982" />
  <sodipodi:namedview
     id="base"
     pagecolor="#ffffff"
     bordercolor="#666666"
     borderopacity="1.0"
     inkscape:pageopacity="0.0"
     inkscape:pageshadow="2"
     inkscape:zoom="178.62713"
     inkscape:cx="68.477726"
     inkscape:cy="30.16619"
     inkscape:document-units="mm"
     inkscape:current-layer="layer1"
     showgrid="false"
     fit-margin-top="0"
     fit-margin-left="0"
     fit-margin-right="0"
     fit-margin-bottom="0"
     showborder="false"
     inkscape:window-width="1920"
     inkscape:window-height="1030"
     inkscape:window-x="0"
     inkscape:window-y="0"
     inkscape:window-maximized="1"
     inkscape:snap-global="false" />
  <metadata
     id="metadata12985">
    <rdf:RDF>
      <cc:Work
         rdf:about="">
        <dc:format>image/svg+xml</dc:format>
        <dc:type
           rdf:resource="http://purl.org/dc/dcmitype/StillImage" />
        <dc:title></dc:title>
      </cc:Work>
    </rdf:RDF>
  </metadata>
  <g
     inkscape:label="Layer 1"
     inkscape:groupmode="layer"
     id="layer1"
     transform="translate(-183.82242,-218.33055)">
    <path
       style="fill:#000000;stroke:#000000;stroke-width:0.26458332px;stroke-linecap:butt;stroke-linejoin:miter;stroke-opacity:1;fill-opacity:1"
       d="m 187.06338,222.02429 c 1.75705,-0.70945 4.38166,-0.76864 5.43337,-0.64343 0.50696,0.43238 0.93942,1.25659 1.2392,2.12093 0,0 2.45454,7.67344 -2.955,10.41396 -1.57521,0.28275 -4.57949,0.98832 -6.17212,1.12004 0,0 8.53135,-5.05208 2.14476,-12.55872 -0.11916,-0.3098 0.30979,-0.45278 0.30979,-0.45278"
       id="path17530"
       inkscape:connector-curvature="0"
       sodipodi:nodetypes="ccccccc" />
    <path
       style="fill:#000000;fill-opacity:1;stroke:none;stroke-width:0.26458332px;stroke-linecap:butt;stroke-linejoin:miter;stroke-opacity:1"
       d="m 202.06054,224.51531 c -0.48884,1.13664 -1.09404,3.07175 -0.17442,5.52249 0.0211,0.0482 0.0798,0.12965 0.17969,0.15792 l -5.93382,0.76258 c -0.13344,-0.0529 -0.17279,-0.14319 -0.20169,-0.24537 -0.38489,-1.36444 -0.37659,-3.35582 0.0931,-4.75659 -0.75815,-0.14734 -1.26302,0.16681 -1.26302,0.16681 l -0.69109,0.33363 -0.47661,-2.5737 c 0,0 7.05406,-0.9294 8.46006,-1.09622 0.14114,0.32192 0.15117,1.38538 0.008,1.72845 z"
       id="path22034"
       inkscape:connector-curvature="0"
       sodipodi:nodetypes="ccccsccccccc" />
  </g>
</svg>
