<?xml version="1.0" encoding="UTF-8" standalone="no"?>
<svg
   xmlns:dc="http://purl.org/dc/elements/1.1/"
   xmlns:cc="http://creativecommons.org/ns#"
   xmlns:rdf="http://www.w3.org/1999/02/22-rdf-syntax-ns#"
   xmlns:svg="http://www.w3.org/2000/svg"
   xmlns="http://www.w3.org/2000/svg"
   viewBox="0 0 61.333332 53.333332"
   height="53.333332"
   width="61.333332"
   id="svg32749"
   version="1.1">
  <metadata
     id="metadata32755">
    <rdf:RDF>
      <cc:Work
         rdf:about="">
        <dc:format>image/svg+xml</dc:format>
        <dc:type
           rdf:resource="http://purl.org/dc/dcmitype/StillImage" />
        <dc:title></dc:title>
      </cc:Work>
    </rdf:RDF>
  </metadata>
  <defs
     id="defs32753" />
  <path
     id="path37234"
     d="M 28.436046,9.9578992 C 17.645641,4.778322 10.408603,7.0610327 10.408603,7.0610327 8.2301997,8.1126759 8.3804344,10.355777 8.3700141,11.460972 c 0.9653805,0.172163 2.3929729,0.514676 2.3929729,0.514676 1.479694,0.386007 2.74527,2.505301 3.241192,4.958108 1.888525,9.340547 -1.492652,22.874191 -2.650674,31.173346 C 27.951816,46.94908 28.106408,45.914427 29.026747,40.170123 32.25654,20.011341 31.516364,11.436504 28.436046,9.9578992 Z"
     style="opacity:1;fill:#002d00;fill-opacity:1;stroke:none;stroke-width:1px;stroke-linecap:butt;stroke-linejoin:miter;stroke-opacity:1" />
  <path
     id="path37236"
     d="M 40.115234 8.6328125 C 34.732317 8.6860002 29.563429 9.3489064 27.535156 10.292969 L 28.628906 29.271484 C 28.628906 29.271484 47.381549 21.950001 50.566406 20.330078 C 53.751264 18.710155 57.450893 15.447166 55.712891 12.160156 C 54.309589 9.5061515 47.036129 8.5644284 40.115234 8.6328125 z M 35.703125 14.013672 C 37.578082 14.000374 39.475828 14.240609 40.146484 14.744141 C 41.195035 15.531397 40.275362 18.669287 31.783203 23.623047 C 31.332867 22.658029 31.396484 14.808594 31.396484 14.808594 C 31.975495 14.293915 33.828168 14.02697 35.703125 14.013672 z "
     style="opacity:1;fill:#002d00;fill-opacity:1;stroke:none;stroke-width:1px;stroke-linecap:butt;stroke-linejoin:miter;stroke-opacity:1" />
  <path
     id="path37236-8"
     d="m 27.119141,24.21875 -1.994197,21.680162 c 0,0 20.81277,-5.521532 23.74029,-7.334459 2.818476,-1.7454 6.761592,-4.809557 6.111328,-8.492187 C 53.955193,24.28795 32.076866,24.441271 27.119141,24.21875 Z m 7.746093,6.380859 c 1.714121,0.01887 3.450438,0.291391 4.121094,0.794922 1.048551,0.787257 -0.70706,3.925146 -9.199219,8.878907 -0.450341,-0.965018 1.09375,-8.94336 1.09375,-8.94336 0.579011,-0.514678 2.270254,-0.749338 3.984375,-0.730469 z"
     style="opacity:1;fill:#002d00;fill-opacity:1;stroke:none;stroke-width:1px;stroke-linecap:butt;stroke-linejoin:miter;stroke-opacity:1" />
</svg>
