<?xml version="1.0" encoding="UTF-8" standalone="no"?>
<svg
   xmlns:dc="http://purl.org/dc/elements/1.1/"
   xmlns:cc="http://creativecommons.org/ns#"
   xmlns:rdf="http://www.w3.org/1999/02/22-rdf-syntax-ns#"
   xmlns:svg="http://www.w3.org/2000/svg"
   xmlns="http://www.w3.org/2000/svg"
   viewBox="0 0 64 50.666668"
   height="50.666668"
   width="64"
   id="svg27657"
   version="1.1">
  <metadata
     id="metadata27663">
    <rdf:RDF>
      <cc:Work
         rdf:about="">
        <dc:format>image/svg+xml</dc:format>
        <dc:type
           rdf:resource="http://purl.org/dc/dcmitype/StillImage" />
        <dc:title></dc:title>
      </cc:Work>
    </rdf:RDF>
  </metadata>
  <defs
     id="defs27661" />
  <path
     id="path32142"
     d="M 9.2287899,7.884198 8.9232009,9.351026 C 20.963411,25.791718 4.1560114,41.498996 4.1560114,41.498996 L 19.802172,39.176519 c 0,0 10.451146,-5.989546 10.573381,-26.708485 C 30.314436,10.512263 29.581022,7.1507843 25.608364,5.256132 21.265916,3.467108 9.2287899,7.884198 9.2287899,7.884198 Z"
     style="fill:#000000;fill-opacity:0.89634144;stroke:none;stroke-width:1px;stroke-linecap:butt;stroke-linejoin:miter;stroke-opacity:1" />
  <path
     id="path32144"
     d="M 54.333737,4.4616004 39.848815,7.884198 c 0,0 -6.600724,7.150784 -0.916767,17.968637 0.855649,1.344592 2.139123,2.26136 2.139123,2.26136 l 19.00764,-3.055892 C 48.710898,19.007639 56.533978,5.8673102 56.533978,5.8673102 Z"
     style="fill:#000000;fill-opacity:1;stroke:none;stroke-width:1px;stroke-linecap:butt;stroke-linejoin:miter;stroke-opacity:1" />
  <path
     id="path32146"
     d="m 23.347005,33.675916 c 0,0 13.018094,-4.76719 19.924407,-6.050664 l -1.161238,-2.261359 c 0,0 -11.18456,2.689184 -18.335344,5.86731 z"
     style="fill:#000000;fill-opacity:0.96951222;stroke:none;stroke-width:1px;stroke-linecap:butt;stroke-linejoin:miter;stroke-opacity:1" />
</svg>
